<?xml version="1.0" encoding="iso-8859-1"?>
<!-- Generator: Adobe Illustrator 19.0.0, SVG Export Plug-In . SVG Version: 6.00 Build 0)  -->
<svg version="1.1" id="Capa_1" xmlns="http://www.w3.org/2000/svg" xmlns:xlink="http://www.w3.org/1999/xlink" x="0px" y="0px"
	 viewBox="0 0 463 463" style="enable-background:new 0 0 463 463;" xml:space="preserve">
<path d="M455.5,392H439v-16.5c0-5.967-3.394-11.148-8.349-13.738c0.226-0.714,0.349-1.473,0.349-2.262V183h16.5
	c2.744,0,5.268-1.498,6.583-3.906c1.314-2.408,1.209-5.342-0.274-7.649l-72-112C380.429,57.298,378.052,56,375.5,56h-288
	c-2.552,0-4.929,1.298-6.309,3.444l-72,112c-1.483,2.308-1.588,5.242-0.274,7.649C10.232,181.502,12.756,183,15.5,183H32v176.5
	c0,0.789,0.123,1.548,0.349,2.262C27.394,364.352,24,369.533,24,375.5V392H7.5c-4.142,0-7.5,3.358-7.5,7.5s3.358,7.5,7.5,7.5h448
	c4.142,0,7.5-3.358,7.5-7.5S459.642,392,455.5,392z M367,360v-65h17v65H367z M335,360v-65h17v65H335z M303,360v-65h17v65H303z
	 M175,360V226.606L218.606,183h25.787L288,226.606V360H175z M143,360v-65h17v65H143z M111,360v-65h17v65H111z M79,360v-65h17v65H79z
	 M46.975,360c0.011-0.166,0.025-0.331,0.025-0.5V295h17v65H46.975z M116.394,183L160,226.606V280H47v-53.394L90.606,183H116.394z
	 M277.937,71l23.983,97H161.08l23.984-97H277.937z M372.394,183L416,226.606V280H303v-53.394L346.606,183H372.394z M265.606,183H288
	v22.394L265.606,183z M303,205.394V183h22.394L303,205.394z M175,205.394V183h22.394L175,205.394z M160,183v22.394L137.606,183H160z
	 M399,295h17v64.5c0,0.169,0.014,0.334,0.025,0.5H399V295z M416,205.394L393.606,183H416V205.394z M433.763,168H317.372l-23.983-97
	h78.017L433.763,168z M91.595,71h78.017l-23.984,97H29.237L91.595,71z M69.394,183L47,205.394V183H69.394z M39,375.5
	c0-0.276,0.224-0.5,0.5-0.5h384c0.276,0,0.5,0.224,0.5,0.5V392H39V375.5z"/>
<g>
</g>
<g>
</g>
<g>
</g>
<g>
</g>
<g>
</g>
<g>
</g>
<g>
</g>
<g>
</g>
<g>
</g>
<g>
</g>
<g>
</g>
<g>
</g>
<g>
</g>
<g>
</g>
<g>
</g>
</svg>
